<svg width="128" height="128" viewBox="0 0 128 128" fill="none" xmlns="http://www.w3.org/2000/svg">
  <!-- Calendar background -->
  <rect x="20" y="20" width="88" height="88" rx="12" fill="#ffffff" stroke="#e5e7eb" stroke-width="2"/>
  
  <!-- Calendar header -->
  <rect x="20" y="20" width="88" height="24" rx="12" fill="#3b82f6"/>
  
  <!-- Calendar spiral binding -->
  <circle cx="32" cy="32" r="4" fill="#6b7280"/>
  <circle cx="96" cy="32" r="4" fill="#6b7280"/>
  <path d="M28 32 Q32 28 36 32 Q32 36 28 32" stroke="#6b7280" stroke-width="1.5" fill="none"/>
  <path d="M92 32 Q96 28 100 32 Q96 36 92 32" stroke="#6b7280" stroke-width="1.5" fill="none"/>
  
  <!-- Calendar grid -->
  <!-- Week headers -->
  <rect x="24" y="48" width="12" height="12" fill="#f3f4f6"/>
  <rect x="36" y="48" width="12" height="12" fill="#f3f4f6"/>
  <rect x="48" y="48" width="12" height="12" fill="#f3f4f6"/>
  <rect x="60" y="48" width="12" height="12" fill="#f3f4f6"/>
  <rect x="72" y="48" width="12" height="12" fill="#f3f4f6"/>
  <rect x="84" y="48" width="12" height="12" fill="#f3f4f6"/>
  <rect x="96" y="48" width="12" height="12" fill="#f3f4f6"/>
  
  <!-- Calendar days - Week 1 -->
  <rect x="24" y="60" width="12" height="12" fill="#ffffff" stroke="#e5e7eb"/>
  <rect x="36" y="60" width="12" height="12" fill="#ffffff" stroke="#e5e7eb"/>
  <rect x="48" y="60" width="12" height="12" fill="#ffffff" stroke="#e5e7eb"/>
  <rect x="60" y="60" width="12" height="12" fill="#ffffff" stroke="#e5e7eb"/>
  <rect x="72" y="60" width="12" height="12" fill="#ffffff" stroke="#e5e7eb"/>
  <rect x="84" y="60" width="12" height="12" fill="#ffffff" stroke="#e5e7eb"/>
  <rect x="96" y="60" width="12" height="12" fill="#ffffff" stroke="#e5e7eb"/>
  
  <!-- Calendar days - Week 2 (highlighted week) -->
  <rect x="24" y="72" width="12" height="12" fill="#dbeafe" stroke="#3b82f6" stroke-width="2"/>
  <rect x="36" y="72" width="12" height="12" fill="#dbeafe" stroke="#3b82f6" stroke-width="2"/>
  <rect x="48" y="72" width="12" height="12" fill="#dbeafe" stroke="#3b82f6" stroke-width="2"/>
  <rect x="60" y="72" width="12" height="12" fill="#dbeafe" stroke="#3b82f6" stroke-width="2"/>
  <rect x="72" y="72" width="12" height="12" fill="#dbeafe" stroke="#3b82f6" stroke-width="2"/>
  <rect x="84" y="72" width="12" height="12" fill="#dbeafe" stroke="#3b82f6" stroke-width="2"/>
  <rect x="96" y="72" width="12" height="12" fill="#dbeafe" stroke="#3b82f6" stroke-width="2"/>
  
  <!-- Calendar days - Week 3 -->
  <rect x="24" y="84" width="12" height="12" fill="#ffffff" stroke="#e5e7eb"/>
  <rect x="36" y="84" width="12" height="12" fill="#ffffff" stroke="#e5e7eb"/>
  <rect x="48" y="84" width="12" height="12" fill="#ffffff" stroke="#e5e7eb"/>
  <rect x="60" y="84" width="12" height="12" fill="#ffffff" stroke="#e5e7eb"/>
  <rect x="72" y="84" width="12" height="12" fill="#ffffff" stroke="#e5e7eb"/>
  <rect x="84" y="84" width="12" height="12" fill="#ffffff" stroke="#e5e7eb"/>
  <rect x="96" y="84" width="12" height="12" fill="#ffffff" stroke="#e5e7eb"/>
  
  <!-- Calendar days - Week 4 -->
  <rect x="24" y="96" width="12" height="12" fill="#ffffff" stroke="#e5e7eb"/>
  <rect x="36" y="96" width="12" height="12" fill="#ffffff" stroke="#e5e7eb"/>
  <rect x="48" y="96" width="12" height="12" fill="#ffffff" stroke="#e5e7eb"/>
  <rect x="60" y="96" width="12" height="12" fill="#ffffff" stroke="#e5e7eb"/>
  <rect x="72" y="96" width="12" height="12" fill="#ffffff" stroke="#e5e7eb"/>
  <rect x="84" y="96" width="12" height="12" fill="#ffffff" stroke="#e5e7eb"/>
  <rect x="96" y="96" width="12" height="12" fill="#ffffff" stroke="#e5e7eb"/>
  
  <!-- Week indicator arrow -->
  <path d="M108 72 L116 76 L108 80 Z" fill="#3b82f6"/>
  <text x="118" y="78" font-family="Arial, sans-serif" font-size="10" fill="#3b82f6" font-weight="bold">W</text>
  
  <!-- Week number indicator -->
  <circle cx="108" cy="60" r="8" fill="#10b981"/>
  <text x="108" y="65" font-family="Arial, sans-serif" font-size="8" fill="#ffffff" font-weight="bold" text-anchor="middle">42</text>
</svg>
